<?xml version="1.0" standalone="no"?>
<svg xmlns="http://www.w3.org/2000/svg" viewBox="0 0 198.60611764705885 53" width="198.60611764705885" height="53"><rect fill="none" stroke="#f29b18" stroke-width="3" width="195.60611764705885" height="50" x="1.5" y="1.5"></rect><path fill="#01427c" fill-rule="nonzero" d="M12.84 18.72L12.84 18.72Q11.98 18.72 11.36 18.44Q10.75 18.17 10.27 17.50Q9.79 16.82 9.31 15.65L9.31 15.65L8.16 12.89Q7.78 11.95 7.45 11.48Q7.13 11.02 6.71 10.85Q6.29 10.68 5.59 10.68L5.59 10.68Q4.99 10.68 4.51 10.75L4.51 10.75L4.51 15.84Q4.51 16.49 4.69 16.73Q4.87 16.97 5.40 17.04L5.40 17.04L7.08 17.23L7.08 18.38L0 18.38L0 17.23L1.39 17.02Q1.85 16.94 1.99 16.70Q2.14 16.46 2.14 15.79L2.14 15.79L2.14 4.08Q2.14 3.46 1.98 3.25Q1.82 3.05 1.34 2.95L1.34 2.95L0 2.74L0 1.58L6.02 1.58Q8.14 1.58 9.58 2.08Q11.02 2.57 11.75 3.52Q12.48 4.46 12.48 5.88L12.48 5.88Q12.48 6.65 12.17 7.37Q11.86 8.09 11.29 8.69Q10.73 9.29 9.96 9.70Q9.19 10.10 8.30 10.27L8.30 10.27L8.30 10.34Q9.22 10.58 9.78 11.09Q10.34 11.59 10.73 12.53L10.73 12.53L11.57 14.50Q11.93 15.31 12.22 15.90Q12.50 16.49 12.90 16.80Q13.30 17.11 13.94 17.11L13.94 17.11Q14.16 17.11 14.40 17.06Q14.64 17.02 15.02 16.90L15.02 16.90L15.26 17.76Q14.76 18.24 14.16 18.48Q13.56 18.72 12.84 18.72ZM5.86 9.53L5.86 9.53Q7.15 9.53 8.05 9.12Q8.95 8.71 9.43 7.92Q9.91 7.13 9.91 6.02L9.91 6.02Q9.91 4.39 8.94 3.64Q7.97 2.88 5.86 2.88L5.86 2.88L4.51 2.88L4.51 9.48Q4.97 9.50 5.29 9.52Q5.62 9.53 5.86 9.53ZM22.85 18.72L22.85 18.72Q21.07 18.72 19.75 17.96Q18.43 17.21 17.72 15.83Q17.02 14.45 17.02 12.58L17.02 12.58Q17.02 10.51 17.76 9.01Q18.50 7.51 19.90 6.70Q21.29 5.88 23.18 5.88L23.18 5.88Q24.94 5.88 26.21 6.62Q27.48 7.37 28.18 8.74Q28.87 10.10 28.87 11.98L28.87 11.98Q28.87 14.02 28.13 15.54Q27.38 17.06 26.04 17.89Q24.70 18.72 22.85 18.72ZM23.18 17.23L23.18 17.23Q24.74 17.23 25.58 16.02Q26.42 14.81 26.42 12.55L26.42 12.55Q26.42 10.13 25.45 8.71Q24.48 7.30 22.80 7.30L22.80 7.30Q21.19 7.30 20.32 8.47Q19.44 9.65 19.44 11.86L19.44 11.86Q19.44 14.38 20.44 15.80Q21.43 17.23 23.18 17.23ZM34.22 17.64L33.10 18.72L32.47 18.53L32.47 2.93Q32.47 2.09 32.29 1.84Q32.11 1.58 31.44 1.49L31.44 1.49L30.38 1.32L30.53 0.12L34.44 0L34.70 0.26L34.70 7.97L34.70 8.14Q35.54 6.94 36.50 6.41Q37.46 5.88 38.81 5.88L38.81 5.88Q40.99 5.88 42.22 7.46Q43.44 9.05 43.44 11.88L43.44 11.88Q43.44 15.14 41.98 16.93Q40.51 18.72 37.85 18.72L37.85 18.72Q35.74 18.72 34.22 17.64L34.22 17.64ZM37.68 17.21L37.68 17.21Q39.26 17.21 40.14 15.89Q41.02 14.57 41.02 12.22L41.02 12.22Q41.02 9.94 40.27 8.77Q39.53 7.61 38.04 7.61L38.04 7.61Q36.48 7.61 35.59 8.53Q34.70 9.46 34.70 11.11L34.70 11.11L34.70 16.08Q35.26 16.61 36.05 16.91Q36.84 17.21 37.68 17.21ZM52.01 18.38L45.55 18.38L45.55 17.21L46.92 16.99Q47.40 16.92 47.53 16.68Q47.66 16.44 47.66 15.77L47.66 15.77L47.66 2.95Q47.66 2.11 47.48 1.86Q47.30 1.61 46.63 1.51L46.63 1.51L45.58 1.34L45.72 0.12L49.63 0L49.90 0.26L49.90 15.86Q49.90 16.46 50.05 16.69Q50.21 16.92 50.66 16.99L50.66 16.99L52.01 17.23L52.01 18.38ZM59.42 18.72L59.42 18.72Q57.67 18.72 56.39 17.95Q55.10 17.18 54.40 15.77Q53.69 14.35 53.69 12.46L53.69 12.46Q53.69 10.46 54.42 8.99Q55.15 7.51 56.47 6.70Q57.79 5.88 59.54 5.88L59.54 5.88Q61.54 5.88 62.75 7.04Q63.96 8.21 63.96 10.13L63.96 10.13Q63.96 10.63 63.88 11.23Q63.79 11.83 63.62 12.48L63.62 12.48L56.11 12.48Q56.18 14.59 57.20 15.77Q58.22 16.94 59.98 16.94L59.98 16.94Q60.89 16.94 61.75 16.56Q62.62 16.18 63.29 15.50L63.29 15.50L64.13 16.34Q63.60 17.06 62.84 17.60Q62.09 18.14 61.21 18.43Q60.34 18.72 59.42 18.72ZM56.11 11.14L56.11 11.14L61.63 11.14Q61.68 10.90 61.69 10.62Q61.70 10.34 61.70 10.03L61.70 10.03Q61.70 8.62 61.09 7.88Q60.48 7.15 59.28 7.15L59.28 7.15Q57.91 7.15 57.11 8.17Q56.30 9.19 56.11 11.14ZM67.61 18.72L66.60 18.72L66.22 14.59L67.56 14.50Q67.90 15.41 68.38 16.03Q68.86 16.66 69.50 16.97Q70.15 17.28 70.92 17.28L70.92 17.28Q71.98 17.28 72.58 16.74Q73.18 16.20 73.18 15.26L73.18 15.26Q73.18 14.50 72.59 14.04Q72 13.58 70.37 13.13L70.37 13.13Q69.31 12.84 68.57 12.49Q67.82 12.14 67.37 11.71Q66.91 11.28 66.71 10.74Q66.50 10.20 66.50 9.48L66.50 9.48Q66.50 8.38 67.01 7.57Q67.51 6.77 68.45 6.32Q69.38 5.88 70.63 5.88L70.63 5.88Q71.38 5.88 72.11 6.11Q72.84 6.34 73.27 6.70L73.27 6.70L73.46 5.88L74.52 5.88L74.83 9.79L73.46 9.67Q73.22 8.54 72.46 7.86Q71.69 7.18 70.68 7.18L70.68 7.18Q69.65 7.18 69.08 7.63Q68.52 8.09 68.52 8.93L68.52 8.93Q68.52 9.67 69.10 10.12Q69.67 10.56 71.28 11.04L71.28 11.04Q72.36 11.35 73.10 11.70Q73.85 12.05 74.30 12.48Q74.76 12.91 74.96 13.46Q75.17 14.02 75.17 14.74L75.17 14.74Q75.17 15.91 74.62 16.81Q74.06 17.71 73.10 18.22Q72.14 18.72 70.87 18.72L70.87 18.72Q69.94 18.72 69.16 18.50Q68.38 18.29 67.87 17.90L67.87 17.90L67.61 18.72ZM88.27 18.72L88.27 18.72Q87.05 18.72 85.88 18.29Q84.72 17.86 83.95 17.11L83.95 17.11L83.57 18.53L82.51 18.53L82.03 13.34L83.40 13.22Q84.12 15.19 85.33 16.19Q86.54 17.18 88.20 17.18L88.20 17.18Q89.21 17.18 89.90 16.86Q90.60 16.54 90.96 15.91Q91.32 15.29 91.32 14.42L91.32 14.42Q91.32 13.10 90.48 12.31Q89.64 11.52 87.55 10.85L87.55 10.85Q85.75 10.27 84.67 9.60Q83.59 8.93 83.11 8.03Q82.63 7.13 82.63 5.88L82.63 5.88Q82.63 4.85 83.00 4.00Q83.38 3.14 84.05 2.53Q84.72 1.92 85.67 1.58Q86.62 1.25 87.77 1.25L87.77 1.25Q88.75 1.25 89.70 1.58Q90.65 1.92 91.32 2.50L91.32 2.50L91.63 1.25L92.76 1.25L93.29 6.10L91.94 6.29Q91.39 4.39 90.38 3.48Q89.38 2.57 87.84 2.57L87.84 2.57Q86.54 2.57 85.75 3.29Q84.96 4.01 84.96 5.21L84.96 5.21Q84.96 6 85.31 6.58Q85.66 7.15 86.47 7.62Q87.29 8.09 88.68 8.57L88.68 8.57Q90.05 9.02 91.01 9.53Q91.97 10.03 92.54 10.62Q93.12 11.21 93.38 11.93Q93.65 12.65 93.65 13.58L93.65 13.58Q93.65 15.07 92.95 16.24Q92.26 17.40 91.04 18.06Q89.83 18.72 88.27 18.72ZM99.02 18.79L99.02 18.79Q98.23 18.79 97.72 18.29Q97.20 17.78 97.20 16.99L97.20 16.99Q97.20 16.20 97.72 15.68Q98.23 15.17 99.02 15.17L99.02 15.17Q99.84 15.17 100.36 15.67Q100.87 16.18 100.87 16.97L100.87 16.97Q100.87 17.76 100.36 18.28Q99.84 18.79 99.02 18.79ZM109.20 18.38L103.39 18.38L103.39 17.23L104.54 17.04Q104.98 16.94 105.17 16.72Q105.36 16.49 105.65 15.74L105.65 15.74L110.71 1.58L113.26 1.58L118.27 15.77Q118.51 16.39 118.67 16.63Q118.82 16.87 119.33 16.99L119.33 16.99L120.31 17.18L120.31 18.38L113.90 18.38L113.90 17.23L115.30 17.06Q115.78 16.99 115.88 16.73Q115.99 16.46 115.75 15.86L115.75 15.86L114.72 12.84L108.29 12.84L107.28 15.77Q107.06 16.37 107.18 16.66Q107.30 16.94 107.83 17.06L107.83 17.06L109.20 17.26L109.20 18.38ZM111.50 3.58L108.77 11.47L114.26 11.47L111.60 3.58L111.50 3.58Z" transform="translate(12 17.104)"></path><line x1="144.312" y1="0" x2="144.312" y2="100%" stroke="#f29b18" stroke-width="3"></line><g fill="#01427c" color="#01427c" transform="translate(157.812, 12) scale(0.5686275)"><svg width="48.0" height="51.0" x="0.0" y="0.0" viewBox="0 0 48 51"><path fill="currentColor" fill-rule="evenodd" d="M41.423 21.026L31.235 5.341l13.395 3.81c-.28 2.031-1.087 6.386-3.207 11.875zm-12.13 19.872V8.146l10.645 16.39c-2.3 5.042-5.679 10.729-10.646 16.362zm-3.158 3.328c-.696.692-1.387 1.384-2.135 2.065-.748-.684-1.44-1.375-2.135-2.065V3.891L24 3.283l2.135.608v40.335zm-7.427-3.328c-4.994-5.662-8.383-11.379-10.682-16.437L18.708 8.015v32.883zM3.37 9.15l13.29-3.78L6.544 20.943C4.451 15.493 3.65 11.17 3.37 9.15zM24 0L0 6.826l.077 1.268c.056.923 1.615 22.832 22.881 41.502L24 50.51l1.042-.914c21.266-18.67 22.825-40.579 22.88-41.502L48 6.826 24 0z"></path></svg></g></svg>